HIERARCHY
ROOT Hips
{
	OFFSET 0.000000 1.471914 24.280096
	CHANNELS 6 Xposition Yposition Zposition Xrotation Yrotation Zrotation
	JOINT Spine
	{
		OFFSET 0.000000 0.900110 1.860670
		CHANNELS 6 Xposition Yposition Zposition Xrotation Yrotation Zrotation
		JOINT Spine1
		{
			OFFSET 0.000000 0.400320 2.270309
			CHANNELS 6 Xposition Yposition Zposition Xrotation Yrotation Zrotation
			JOINT Spine2
			{
				OFFSET 0.000000 0.200920 2.296560
				CHANNELS 6 Xposition Yposition Zposition Xrotation Yrotation Zrotation
				JOINT Spine3
				{
					OFFSET 0.000000 0.000000 2.305330
					CHANNELS 6 Xposition Yposition Zposition Xrotation Yrotation Zrotation
					JOINT Neck
					{
						OFFSET 0.000000 -0.864490 6.051487
						CHANNELS 6 Xposition Yposition Zposition Xrotation Yrotation Zrotation
						JOINT Head
						{
							OFFSET 0.000000 -0.550429 3.121674
							CHANNELS 6 Xposition Yposition Zposition Xrotation Yrotation Zrotation
							End Site
							{
								OFFSET 0.000000 0.000000 3.731750
							}
						}
					}
					JOINT RightShoulder
					{
						OFFSET -0.788280 -1.313800 4.256718
						CHANNELS 6 Xposition Yposition Zposition Xrotation Yrotation Zrotation
						JOINT RightArm
						{
							OFFSET -3.915130 0.000000 0.000000
							CHANNELS 6 Xposition Yposition Zposition Xrotation Yrotation Zrotation
							JOINT RightForeArm
							{
								OFFSET -6.914910 0.000000 0.000000
								CHANNELS 6 Xposition Yposition Zposition Xrotation Yrotation Zrotation
								JOINT RightHand
								{
									OFFSET -6.096219 0.000000 0.000000
									CHANNELS 6 Xposition Yposition Zposition Xrotation Yrotation Zrotation
									JOINT RightHandEnd
									{
										OFFSET -1.749950 0.000000 0.000000
										CHANNELS 6 Xposition Yposition Zposition Xrotation Yrotation Zrotation
										End Site
										{
											OFFSET -1.749950 0.000000 0.000000
										}
									}
									JOINT RightHandThumb1
									{
										OFFSET -0.699980 -1.166630 -0.466648
										CHANNELS 6 Xposition Yposition Zposition Xrotation Yrotation Zrotation
										End Site
										{
											OFFSET -1.690319 -0.452920 0.000000
										}
									}
								}
							}
						}
					}
					JOINT LeftShoulder
					{
						OFFSET 0.788280 -1.313800 4.256718
						CHANNELS 6 Xposition Yposition Zposition Xrotation Yrotation Zrotation
						JOINT LeftArm
						{
							OFFSET 3.915130 0.000000 0.000000
							CHANNELS 6 Xposition Yposition Zposition Xrotation Yrotation Zrotation
							JOINT LeftForeArm
							{
								OFFSET 6.914910 0.000000 0.000000
								CHANNELS 6 Xposition Yposition Zposition Xrotation Yrotation Zrotation
								JOINT LeftHand
								{
									OFFSET 6.096219 0.000000 0.000000
									CHANNELS 6 Xposition Yposition Zposition Xrotation Yrotation Zrotation
									JOINT LeftHandEnd
									{
										OFFSET 1.749950 0.000000 0.000000
										CHANNELS 6 Xposition Yposition Zposition Xrotation Yrotation Zrotation
										End Site
										{
											OFFSET 1.749950 0.000000 0.000000
										}
									}
									JOINT LeftHandThumb1
									{
										OFFSET 0.699980 -1.166630 -0.466648
										CHANNELS 6 Xposition Yposition Zposition Xrotation Yrotation Zrotation
										End Site
										{
											OFFSET 1.690319 -0.452920 0.000000
										}
									}
								}
							}
						}
					}
				}
			}
		}
	}
	JOINT RightUpLeg
	{
		OFFSET -2.338570 -0.252550 -0.551512
		CHANNELS 6 Xposition Yposition Zposition Xrotation Yrotation Zrotation
		JOINT RightLeg
		{
			OFFSET 0.000000 0.000000 -10.744959
			CHANNELS 6 Xposition Yposition Zposition Xrotation Yrotation Zrotation
			JOINT RightFoot
			{
				OFFSET 0.000000 -0.000001 -10.930849
				CHANNELS 6 Xposition Yposition Zposition Xrotation Yrotation Zrotation
				JOINT RightToeBase
				{
					OFFSET 0.000000 -4.087269 -1.487650
					CHANNELS 6 Xposition Yposition Zposition Xrotation Yrotation Zrotation
					End Site
					{
						OFFSET 0.000000 -1.891870 0.000000
					}
				}
			}
		}
	}
	JOINT LeftUpLeg
	{
		OFFSET 2.338570 -0.252550 -0.551512
		CHANNELS 6 Xposition Yposition Zposition Xrotation Yrotation Zrotation
		JOINT LeftLeg
		{
			OFFSET 0.000000 0.000000 -10.744959
			CHANNELS 6 Xposition Yposition Zposition Xrotation Yrotation Zrotation
			JOINT LeftFoot
			{
				OFFSET 0.000000 -0.000001 -10.930849
				CHANNELS 6 Xposition Yposition Zposition Xrotation Yrotation Zrotation
				JOINT LeftToeBase
				{
					OFFSET 0.000000 -4.087269 -1.487650
					CHANNELS 6 Xposition Yposition Zposition Xrotation Yrotation Zrotation
					End Site
					{
						OFFSET 0.000000 -1.891870 0.000000
					}
				}
			}
		}
	}
}
MOTION
Frames: 4
Frame Time: 0.041667
-0.000044 26.545841 40.031593 -15.762827 6.560237 -15.623914 -0.000000 0.900095 1.860690 33.406858 -2.058864 -1.812496 -0.000000 0.400303 2.270291 -0.000009 0.000001 -0.000001 0.000010 0.200939 2.296566 -0.000003 -0.000000 0.000001 0.000007 -0.000008 2.305332 -0.000028 0.000001 -0.849903 0.000002 -0.864480 6.051479 -3.505436 -2.658956 -174.316099 0.000002 -0.550434 3.121666 0.000000 0.000000 -0.000001 -0.788283 -1.313774 4.256738 -125.600021 55.433324 -57.218055 -3.915140 0.000002 0.000004 -0.000000 -0.000001 -0.000000 -6.914908 0.000009 0.000009 0.000013 0.000003 -24.482714 -6.096220 -0.000002 0.000008 -0.000020 -0.000009 -0.000026 -1.749963 0.000011 -0.000008 -0.000003 0.000001 0.000002 -0.699988 -1.166627 -0.466644 -0.000003 0.000004 0.000002 0.788266 -1.313795 4.256733 -125.655632 -54.949620 55.085213 3.915149 0.000015 0.000004 -0.000007 0.000003 -0.000002 6.914916 0.000015 -0.000012 -0.000005 -0.000001 24.925198 6.096221 0.000005 0.000000 -0.000013 -0.000004 0.000020 1.749945 -0.000003 -0.000008 0.000000 -0.000000 -0.000004 0.699974 -1.166632 -0.466660 -0.000005 -0.000000 -0.000007 -2.338573 -0.252555 -0.551487 27.364297 -4.828501 -1.518865 0.000004 -0.000001 -10.744966 5.013366 2.805060 -0.676011 -0.000001 0.000020 -10.930857 -0.000010 -0.000007 0.000005 0.000004 -4.087277 -1.487652 -0.000003 -0.000000 -0.000002 2.338569 -0.252552 -0.551478 27.816478 -1.047613 -1.537192 -0.000003 0.000001 -10.744951 2.648789 0.571132 -0.183157 -0.000001 0.000009 -10.930846 -0.000002 -0.000003 0.000006 -0.000001 -4.087265 -1.487656 0.000002 0.000000 0.000002 
-0.000043 26.545839 40.031601 -15.728698 6.588773 -15.724508 -0.000001 0.900096 1.860686 33.194740 -1.957621 -1.852962 0.000000 0.400303 2.270298 -0.000008 0.000001 -0.000002 0.000010 0.200933 2.296562 -0.000001 0.000001 0.000001 0.000007 -0.000004 2.305328 -0.000031 -0.000001 -0.945787 0.000001 -0.864476 6.051480 -3.420675 -2.383963 -175.175952 0.000001 -0.550432 3.121670 -0.000000 0.000000 -0.000001 -0.788285 -1.313772 4.256730 -125.225084 54.894818 -57.085813 -3.915145 -0.000003 0.000008 -0.000000 0.000001 -0.000002 -6.914904 0.000005 0.000002 0.000014 0.000002 -24.731314 -6.096219 -0.000001 0.000008 -0.000024 -0.000010 -0.000025 -1.749964 0.000014 0.000000 -0.000004 0.000000 -0.000001 -0.699993 -1.166626 -0.466641 -0.000002 0.000003 0.000000 0.788263 -1.313791 4.256730 -125.852205 -55.245012 54.656536 3.915148 0.000008 0.000004 -0.000002 0.000001 0.000001 6.914918 0.000014 -0.000012 -0.000004 -0.000002 24.984694 6.096221 0.000003 -0.000008 -0.000004 -0.000005 0.000018 1.749940 0.000004 -0.000015 0.000002 -0.000001 0.000002 0.699965 -1.166624 -0.466664 -0.000003 -0.000002 -0.000002 -2.338574 -0.252554 -0.551490 27.281584 -4.814740 -1.557504 0.000005 -0.000008 -10.744959 5.125644 2.803308 -0.697425 0.000000 0.000020 -10.930859 -0.000007 -0.000008 0.000003 0.000003 -4.087271 -1.487646 0.000004 0.000001 0.000002 2.338567 -0.252553 -0.551477 27.819627 -1.007915 -1.580658 -0.000003 0.000002 -10.744953 2.571716 0.635796 -0.179708 -0.000000 0.000001 -10.930839 -0.000003 -0.000004 0.000001 -0.000002 -4.087262 -1.487650 0.000000 0.000000 0.000002 
-0.000043 26.545843 40.031601 -15.570412 6.649366 -15.720966 -0.000001 0.900095 1.860685 32.940541 -2.092161 -1.871646 0.000001 0.400299 2.270296 -0.000007 0.000001 -0.000001 0.000012 0.200938 2.296561 -0.000000 -0.000000 -0.000001 0.000007 -0.000004 2.305332 -0.000029 -0.000000 -1.208868 0.000002 -0.864487 6.051470 -3.492399 -2.136593 -175.403916 0.000002 -0.550433 3.121674 0.000001 -0.000000 0.000000 -0.788284 -1.313785 4.256732 -126.135562 55.844655 -56.020436 -3.915147 0.000002 0.000008 -0.000001 0.000000 -0.000000 -6.914910 0.000008 0.000005 0.000014 0.000003 -24.495729 -6.096221 0.000003 0.000007 -0.000020 -0.000010 -0.000022 -1.749960 0.000008 0.000004 -0.000002 -0.000004 0.000001 -0.699987 -1.166627 -0.466637 -0.000002 0.000000 0.000003 0.788263 -1.313802 4.256730 -125.640456 -55.109815 54.758880 3.915150 0.000007 0.000004 -0.000001 0.000002 0.000000 6.914910 0.000016 -0.000015 -0.000001 -0.000002 24.778652 6.096220 0.000004 0.000000 -0.000006 -0.000003 0.000020 1.749945 0.000001 -0.000011 -0.000001 0.000000 0.000002 0.699971 -1.166628 -0.466660 -0.000008 0.000001 -0.000003 -2.338573 -0.252556 -0.551493 27.116814 -4.866133 -1.575095 0.000004 -0.000005 -10.744967 5.119583 2.637681 -0.706311 0.000001 0.000018 -10.930854 -0.000007 -0.000005 0.000004 0.000003 -4.087273 -1.487651 -0.000001 -0.000000 0.000000 2.338568 -0.252554 -0.551478 27.734555 -1.122734 -1.602880 -0.000004 0.000000 -10.744948 2.478678 0.660027 -0.180456 0.000001 0.000005 -10.930843 -0.000002 -0.000005 0.000004 -0.000001 -4.087270 -1.487654 -0.000003 -0.000000 0.000003 
-0.000041 26.545841 40.031593 -15.548398 6.626526 -15.614419 -0.000001 0.900093 1.860685 32.685966 -2.229708 -1.840538 0.000002 0.400302 2.270289 -0.000008 -0.000000 -0.000004 0.000011 0.200932 2.296568 -0.000003 0.000001 0.000002 0.000007 -0.000011 2.305332 -0.000024 -0.000000 -1.241396 0.000005 -0.864484 6.051489 -3.756829 -2.013647 -175.660021 0.000001 -0.550432 3.121674 0.000000 0.000000 -0.000000 -0.788282 -1.313783 4.256740 -127.201044 56.394089 -54.655293 -3.915142 0.000000 0.000004 0.000000 0.000001 0.000001 -6.914908 0.000005 0.000002 0.000014 0.000004 -24.364765 -6.096221 -0.000000 0.000009 -0.000023 -0.000008 -0.000025 -1.749958 0.000011 0.000000 -0.000004 -0.000000 -0.000000 -0.699981 -1.166625 -0.466641 -0.000002 0.000003 0.000001 0.788269 -1.313804 4.256730 -126.159236 -55.922314 53.963142 3.915150 0.000007 0.000008 -0.000002 0.000003 0.000000 6.914910 0.000018 -0.000008 -0.000003 -0.000003 24.572881 6.096227 0.000006 -0.000004 -0.000006 -0.000004 0.000019 1.749937 -0.000002 -0.000015 0.000001 -0.000004 -0.000001 0.699966 -1.166631 -0.466663 -0.000003 -0.000001 -0.000003 -2.338573 -0.252557 -0.551492 27.169304 -4.912540 -1.562218 0.000005 -0.000008 -10.744967 5.019459 2.645941 -0.693810 -0.000001 0.000018 -10.930861 -0.000005 -0.000006 0.000004 0.000004 -4.087273 -1.487650 0.000001 -0.000001 -0.000000 2.338569 -0.252554 -0.551483 27.584037 -1.183263 -1.578937 -0.000004 0.000001 -10.744952 2.671087 0.732863 -0.196033 -0.000001 0.000006 -10.930843 -0.000003 -0.000005 0.000005 -0.000000 -4.087271 -1.487653 0.000000 0.000001 0.000002 
